<svg width="45" height="45" viewBox="0 0 45 45" fill="none" xmlns="http://www.w3.org/2000/svg">
<g clip-path="url(#clip0_1119_318)">
<circle cx="22.5" cy="22.5" r="22.5" fill="#C61F37"/>
<g clip-path="url(#clip1_1119_318)">
<path fill-rule="evenodd" clip-rule="evenodd" d="M12.3197 22.9243L12.4947 23.0144L12.4708 23.4489L12.4468 23.8833L12.778 24.4949C14.1405 27.011 15.889 28.7834 18.5263 30.3222C18.8792 30.528 19.3832 30.8409 19.6463 31.0173C20.2745 31.4385 21.6696 32.2131 23.4755 33.1434L24.9361 33.8959L24.8939 33.2744C24.7893 31.7352 24.7676 30.9791 24.83 31.0459C25.5899 31.8585 27.0369 34.3509 27.1653 35.0681L27.252 35.5519L27.1402 36.1289L27.0286 36.7058L26.3935 37.9636L25.7585 39.2213L25.4907 40.1651C25.3434 40.6842 25.1823 41.1846 25.1326 41.2771L25.0424 41.4455L24.7907 41.137C23.5182 39.5778 21.4426 37.8619 18.417 35.8679C13.167 32.408 11.2136 30.1118 10.8477 26.9704L10.7639 26.2502L10.8435 25.4904C11.0441 23.5788 11.6261 22.567 12.3197 22.9243Z" fill="white"/>
<path fill-rule="evenodd" clip-rule="evenodd" d="M15.8946 9.3012C17.0096 10.0463 18.2003 12.5467 18.2003 14.1429C18.2003 14.2462 18.5265 13.9964 18.9353 13.5802C19.3562 13.1515 20.3703 12.4168 20.3703 12.5405C20.3703 12.5634 20.3103 12.6802 20.2369 12.8C20.0833 13.0512 19.8803 13.7005 19.8803 13.9409V14.1049L20.3358 13.7563C20.9574 13.2808 21.6426 12.8839 22.2078 12.6721C22.7452 12.4707 22.7407 12.4686 22.5053 12.8149C22.3357 13.0644 22.2685 13.3089 22.3901 13.2338C22.5599 13.1291 24.585 12.8433 25.152 12.8442C26.3063 12.8459 26.3914 12.9497 25.4286 13.182C24.107 13.5008 23.3922 14.0576 23.4627 14.7134L23.4853 14.9231L25.2353 14.4851C27.8995 13.8183 28.8907 13.466 29.5792 12.9414C29.9826 12.6341 29.9767 12.6311 29.949 13.1273L29.9253 13.5512L30.1353 13.5123C31.0087 13.3506 32.2462 13.2973 32.6335 13.4047L32.8918 13.4764L33.0266 13.841C33.1008 14.0416 33.1827 14.3223 33.2085 14.4648L33.2555 14.7239L33.6609 15.1286L34.0663 15.5334L34.3587 16.1274C34.5195 16.454 34.7201 16.9729 34.8045 17.2803L34.9579 17.8393L34.9604 19.4465L34.9629 21.0536L34.806 21.9217C34.624 22.9293 34.5249 23.325 34.455 23.3235C34.4038 23.3225 33.8058 21.4687 33.8087 21.3198C33.8096 21.274 33.7853 21.2211 33.7548 21.2023C33.6568 21.1418 33.746 22.0765 33.9207 22.9395C34.2159 24.3979 34.1161 25.5714 33.5603 27.1781C33.315 27.8871 32.6424 29.3829 32.594 29.3272C32.5805 29.3117 32.4489 29.0166 32.3017 28.6715C31.8249 27.5544 30.3103 25.5117 30.3103 25.9859C30.3103 26.2149 30.5372 26.9399 30.6998 27.2304C30.9182 27.6203 30.9167 27.6212 30.274 27.4886C28.7832 27.1808 27.3406 26.4985 26.2165 25.5693C25.7739 25.2035 25.828 25.1793 25.496 25.8926C25.1693 26.5943 24.959 27.3381 24.8422 28.205L24.7607 28.8098L24.8057 30.9061C24.8305 32.059 24.8712 33.204 24.8963 33.4504L24.9418 33.8985L23.4786 33.1446C21.6703 32.2132 20.2754 31.4386 19.6469 31.0173C19.3838 30.8408 18.8798 30.528 18.5269 30.3221C15.896 28.7871 14.1302 26.9991 12.7896 24.5125L12.4693 23.9185L12.4653 22.8129C12.4581 20.8084 12.182 19.7242 11.4507 18.8279L11.1177 18.4199L11.2815 18.4699C11.6245 18.5746 11.9094 18.7123 12.2095 18.9184L12.5203 19.1319L12.1644 18.4856C11.7559 17.7435 11.3596 17.1422 11.0386 16.7772C10.9158 16.6376 10.8468 16.5366 10.8853 16.5528C11.0807 16.6352 11.7472 16.9992 11.9017 17.1079L12.078 17.232L11.8501 16.767C11.7246 16.5113 11.5711 16.1134 11.5088 15.8828L11.3954 15.4635L11.3391 13.7865C11.2836 12.1335 11.1746 11.2279 10.9576 10.6138C10.8986 10.4467 10.8503 10.2642 10.8503 10.2079V10.1058L11.1439 10.1553C12.2194 10.3367 13.7285 11.4136 14.3289 12.4282C14.5019 12.7205 14.5137 12.7074 14.7583 11.9523C15.0778 10.9663 15.1866 10.45 15.2368 9.68133C15.2888 8.88754 15.2817 8.89166 15.8946 9.3012ZM-6.39318 17.6346C-6.36994 17.695 -6.55866 18.4104 -6.81255 19.2243C-8.03097 23.1314 -8.35465 25.9158 -7.8678 28.3032L-7.8286 28.4954H-7.55756C-7.29996 28.4954 -5.40184 28.7468 -5.17973 28.8104C-4.97498 28.8689 -0.71604 29.4668 0.49027 29.6063C4.10941 30.0248 6.95344 29.9658 8.85527 29.4326C10.0152 29.1074 10.3939 28.8762 10.8904 28.1904L11.0353 27.9902L11.1924 28.4699C12.0081 30.9606 13.8805 32.8779 18.4176 35.8679C20.9601 37.5436 22.6125 38.8444 24.0393 40.2936L24.5233 40.7853L24.3986 41.2452C24.2295 41.8686 23.8646 42.6012 23.5989 42.8505L23.3803 43.0557L23.3791 42.6408L23.3781 42.226L23.1166 42.7014C22.5039 43.8158 21.9457 44.4255 21.9932 43.9284L22.0208 43.6394L21.6569 44.0296C21.1605 44.5621 20.3462 45.7937 20.1875 46.252L20.0573 46.6281L20.0581 47.5365L20.0588 48.4449L20.1818 48.8476L20.3047 49.2504L20.635 49.4923C20.8167 49.6253 21.099 49.79 21.2625 49.8582C21.677 50.0311 21.6336 50.1091 21.1427 50.0737L20.7252 50.0435L21.3352 50.4169C21.6707 50.6222 22.0949 50.8438 22.2778 50.9092C22.6997 51.0602 22.7058 51.1641 22.2899 51.1172L21.9695 51.0812L22.1674 51.2022C22.6711 51.5104 23.0061 51.988 23.0762 52.4981L23.1197 52.8153L22.8395 53.0815L22.5592 53.3475L22.0773 53.4983C20.8103 53.8947 18.1955 53.8898 16.2708 53.4874C14.8348 53.1872 13.955 52.3125 13.4251 50.6577C13.0707 49.5514 13.1766 49.6184 12.3029 49.947C10.1963 50.7394 7.74892 51.0358 5.47777 50.7736C4.66724 50.68 4.6237 50.6459 5.09277 50.4716C5.59754 50.2842 5.575 50.2595 4.92393 50.2866C4.24906 50.3147 2.73027 50.172 2.73027 50.0804C2.73027 50.0475 2.87986 49.95 3.06277 49.8637L3.39527 49.7069L2.48527 49.6523C-0.67635 49.4628 -5.2281 48.4917 -9.69228 47.0545C-10.23 46.8814 -10.673 46.7461 -10.6768 46.7539C-10.9904 47.3971 -11.2416 48.3271 -11.1672 48.5703C-11.153 48.6166 -11.1213 48.7458 -11.0965 48.8574L-11.0517 49.0602L-11.2482 48.9357C-11.3563 48.8672 -11.5252 48.7366 -11.6236 48.6455C-11.8651 48.4217 -11.877 48.4282 -11.9639 48.8327C-12.0593 49.2769 -12.0609 49.7428 -11.9678 49.9874C-11.8698 50.2447 -11.9098 50.2601 -12.2401 50.0919C-12.3964 50.0123 -12.5369 49.9472 -12.5524 49.9472C-12.6265 49.9472 -12.6617 50.6259 -12.5996 50.8561L-12.5294 51.1163L-12.2165 51.2355C-11.536 51.495 -10.9246 52.2518 -10.9213 52.8388L-10.9197 53.1101L-11.1677 53.3436C-11.6643 53.811 -12.6391 53.9966 -14.6087 53.9986L-15.9526 54L-16.7087 53.855C-18.1553 53.5776 -18.7111 53.1724 -19.4804 51.8339C-20.6014 49.8836 -21.1266 45.4149 -20.5546 42.6943L-20.4621 42.2543L-20.7309 42.5164L-20.9997 42.7784V42.5985C-20.9997 42.316 -20.6904 41.1724 -20.4196 40.4532L-20.1729 39.7986L-20.5147 40.1346C-20.991 40.6028 -20.9935 40.5283 -20.5412 39.3504C-18.7725 34.743 -15.3457 30.677 -11.8342 29.0194L-11.3901 28.8098L-11.4309 27.9713C-11.4776 27.0077 -11.5695 26.5191 -11.8038 25.9887C-11.8951 25.7821 -11.9697 25.6001 -11.9697 25.5844C-11.9697 25.5244 -11.7125 25.6967 -11.53 25.8789C-11.4253 25.9833 -11.3397 26.0511 -11.3397 26.0296C-11.3397 25.9349 -11.8194 24.5948 -11.9289 24.3837C-12.1244 24.0067 -12.026 24.0604 -11.4631 24.6378L-10.9326 25.182L-10.8104 24.725C-10.1023 22.0767 -8.75743 19.5901 -7.11439 17.8917C-6.75067 17.5157 -6.47641 17.418 -6.39318 17.6346Z" fill="black"/>
</g>
</g>
<defs>
<clipPath id="clip0_1119_318">
<rect width="45" height="45" rx="22.5" fill="white"/>
</clipPath>
<clipPath id="clip1_1119_318">
<rect width="56" height="45" fill="white" transform="matrix(-1 0 0 1 35 9)"/>
</clipPath>
</defs>
</svg>
