<svg width="600" height="150" viewBox="0 0 600 150" fill="none" xmlns="http://www.w3.org/2000/svg">
<circle cx="75" cy="25" r="25" fill="#EC8796"/>
<circle cx="25" cy="125" r="25" fill="#141109"/>
<circle cx="125" cy="75" r="25" fill="#E7DCDE"/>
<path d="M50 50C50 22.3858 27.6142 3.8147e-06 0 3.8147e-06V50H50Z" fill="#E7DCDE"/>
<path d="M150 50C150 22.3858 127.614 3.8147e-06 100 3.8147e-06V50H150Z" fill="#8C2836"/>
<path d="M100 150C100 122.386 77.6142 100 50 100V150H100Z" fill="#8C2836"/>
<path d="M200 150C200 122.386 177.614 100 150 100V150H200Z" fill="#E7DCDE"/>
<path d="M50 50C22.3858 50 -1.20706e-06 72.3858 0 100L50 100L50 50Z" fill="#8C2836"/>
<path d="M200 50C172.386 50 150 72.3858 150 100L200 100L200 50Z" fill="#141109"/>
<path d="M50 100C77.6142 100 100 77.6142 100 50L50 50L50 100Z" fill="#141109"/>
<path d="M100 150C127.614 150 150 127.614 150 100L100 100L100 150Z" fill="#EC8796"/>
<path d="M150 3.8147e-06C150 27.6142 172.386 50 200 50L200 8.18584e-06L150 3.8147e-06Z" fill="#EC8796"/>
<circle cx="275" cy="25" r="25" fill="#EC8796"/>
<circle cx="225" cy="125" r="25" fill="#141109"/>
<circle cx="325" cy="125" r="25" fill="#141109"/>
<path d="M250 50C250 22.3858 227.614 3.8147e-06 200 3.8147e-06V50H250Z" fill="#141109"/>
<path d="M350 50C350 22.3858 327.614 3.8147e-06 300 3.8147e-06V50H350Z" fill="#141109"/>
<path d="M250 150C250 122.386 272.386 100 300 100V150H250Z" fill="#8C2836"/>
<path d="M400 75C400 61.1929 388.807 50 375 50H225C211.193 50 200 61.1929 200 75V75C200 88.8071 211.193 100 225 100L375 100C388.807 100 400 88.8071 400 75V75Z" fill="#8C2836"/>
<path d="M350 100C350 127.614 372.386 150 400 150L400 100L350 100Z" fill="#EC8796"/>
<path d="M350 50C377.614 50 400 27.6142 400 1.69725e-06L350 4.76837e-07L350 50Z" fill="#EC8796"/>
<circle cx="475" cy="25" r="25" fill="#141109"/>
<circle cx="425" cy="75" r="25" fill="#141109"/>
<circle cx="525" cy="125" r="25" fill="#EC8796"/>
<path d="M450 50C450 22.3858 427.614 3.8147e-06 400 3.8147e-06V50H450Z" fill="#E7DCDE"/>
<path d="M500 -4.37114e-06C500 27.6142 522.386 50 550 50L550 0L500 -4.37114e-06Z" fill="#8C2836"/>
<path d="M500 150C500 122.386 477.614 100 450 100V150H500Z" fill="#E7DCDE"/>
<path d="M600 150C600 122.386 577.614 100 550 100V150H600Z" fill="#8C2836"/>
<path d="M450 150C450 122.386 427.614 100 400 100L400 150L450 150Z" fill="#8C2836"/>
<path d="M600 50C572.386 50 550 72.3858 550 100L600 100L600 50Z" fill="#141109"/>
<path d="M450 100C477.614 100 500 77.6142 500 50L450 50L450 100Z" fill="#8C2836"/>
<path d="M500 100C527.614 100 550 77.6142 550 50L500 50L500 100Z" fill="#EC8796"/>
<path d="M550 3.8147e-06C550 27.6142 572.386 50 600 50L600 8.18584e-06L550 3.8147e-06Z" fill="#EC8796"/>
<path d="M263.352 73.6191H261.253C261.214 73.3475 261.136 73.1062 261.018 72.8952C260.9 72.6811 260.748 72.4989 260.562 72.3487C260.377 72.1985 260.163 72.0835 259.92 72.0036C259.68 71.9237 259.42 71.8837 259.139 71.8837C258.63 71.8837 258.188 72.0099 257.811 72.2624C257.433 72.5117 257.141 72.8761 256.933 73.3555C256.726 73.8317 256.622 74.4102 256.622 75.0909C256.622 75.7908 256.726 76.3789 256.933 76.8551C257.144 77.3313 257.438 77.6909 257.815 77.9338C258.193 78.1767 258.629 78.2981 259.124 78.2981C259.402 78.2981 259.659 78.2614 259.896 78.1879C260.136 78.1143 260.348 78.0073 260.534 77.8667C260.719 77.7228 260.872 77.5487 260.994 77.3441C261.118 77.1396 261.205 76.9062 261.253 76.6442L263.352 76.6538C263.298 77.1044 263.162 77.5391 262.945 77.9577C262.731 78.3732 262.442 78.7456 262.077 79.0748C261.716 79.4007 261.285 79.6596 260.783 79.8514C260.284 80.04 259.72 80.1342 259.091 80.1342C258.215 80.1342 257.432 79.9361 256.742 79.5398C256.054 79.1435 255.511 78.5698 255.112 77.8187C254.715 77.0676 254.517 76.1584 254.517 75.0909C254.517 74.0202 254.718 73.1094 255.121 72.3583C255.524 71.6072 256.07 71.0352 256.761 70.642C257.451 70.2457 258.228 70.0476 259.091 70.0476C259.659 70.0476 260.187 70.1275 260.673 70.2873C261.162 70.4471 261.595 70.6804 261.972 70.9872C262.349 71.2908 262.656 71.6632 262.892 72.1042C263.132 72.5453 263.285 73.0502 263.352 73.6191ZM266.191 70.1818H268.751L271.455 76.7784H271.57L274.274 70.1818H276.834V80H274.82V73.6096H274.739L272.198 79.9521H270.827L268.286 73.5856H268.205V80H266.191V70.1818ZM285.959 70.1818H288.034V76.5579C288.034 77.2738 287.863 77.9002 287.521 78.4371C287.183 78.9741 286.708 79.3928 286.098 79.6932C285.487 79.9904 284.776 80.139 283.964 80.139C283.149 80.139 282.437 79.9904 281.826 79.6932C281.216 79.3928 280.741 78.9741 280.402 78.4371C280.063 77.9002 279.894 77.2738 279.894 76.5579V70.1818H281.97V76.3805C281.97 76.7544 282.051 77.0868 282.214 77.3777C282.381 77.6685 282.614 77.897 282.914 78.0632C283.215 78.2294 283.565 78.3125 283.964 78.3125C284.367 78.3125 284.717 78.2294 285.014 78.0632C285.315 77.897 285.546 77.6685 285.709 77.3777C285.875 77.0868 285.959 76.7544 285.959 76.3805V70.1818ZM290.718 71.8933V70.1818H298.782V71.8933H295.776V80H293.724V71.8933H290.718ZM301.086 71.8933V70.1818H309.149V71.8933H306.144V80H304.092V71.8933H301.086ZM312.521 80.1246C312.205 80.1246 311.933 80.0128 311.706 79.7891C311.483 79.5621 311.371 79.2905 311.371 78.9741C311.371 78.6609 311.483 78.3924 311.706 78.1687C311.933 77.945 312.205 77.8331 312.521 77.8331C312.828 77.8331 313.097 77.945 313.327 78.1687C313.557 78.3924 313.672 78.6609 313.672 78.9741C313.672 79.185 313.618 79.3784 313.509 79.5542C313.403 79.7267 313.264 79.8658 313.092 79.9712C312.919 80.0735 312.729 80.1246 312.521 80.1246ZM318.429 80H316.205L319.594 70.1818H322.269L325.654 80H323.429L320.97 72.4254H320.893L318.429 80ZM318.29 76.1408H323.544V77.7612H318.29V76.1408ZM328.186 80V70.1818H332.059C332.804 70.1818 333.438 70.324 333.962 70.6085C334.487 70.8897 334.886 71.2812 335.161 71.783C335.439 72.2816 335.578 72.8569 335.578 73.5089C335.578 74.1609 335.437 74.7362 335.156 75.2347C334.875 75.7333 334.467 76.1216 333.934 76.3997C333.403 76.6777 332.761 76.8168 332.006 76.8168H329.537V75.1532H331.671C332.07 75.1532 332.4 75.0845 332.658 74.9471C332.92 74.8065 333.115 74.6131 333.243 74.367C333.374 74.1177 333.44 73.8317 333.44 73.5089C333.44 73.1829 333.374 72.8984 333.243 72.6555C333.115 72.4094 332.92 72.2193 332.658 72.085C332.396 71.9476 332.064 71.8789 331.661 71.8789H330.261V80H328.186ZM338.276 80V70.1818H342.15C342.895 70.1818 343.529 70.324 344.053 70.6085C344.577 70.8897 344.977 71.2812 345.252 71.783C345.53 72.2816 345.669 72.8569 345.669 73.5089C345.669 74.1609 345.528 74.7362 345.247 75.2347C344.966 75.7333 344.558 76.1216 344.024 76.3997C343.494 76.6777 342.851 76.8168 342.097 76.8168H339.628V75.1532H341.762C342.161 75.1532 342.49 75.0845 342.749 74.9471C343.011 74.8065 343.206 74.6131 343.334 74.367C343.465 74.1177 343.531 73.8317 343.531 73.5089C343.531 73.1829 343.465 72.8984 343.334 72.6555C343.206 72.4094 343.011 72.2193 342.749 72.085C342.487 71.9476 342.155 71.8789 341.752 71.8789H340.352V80H338.276Z" fill="#E7DCDE"/>
</svg>
